<mxfile host="app.diagrams.net" agent="Mozilla/5.0 (Windows NT 10.0; Win64; x64) AppleWebKit/537.36 (KHTML, like Gecko) Chrome/141.0.0.0 Safari/537.36" version="28.2.5">
  <diagram name="Leht-1" id="O5IGBOJLT5aCZonxw6p2">
    <mxGraphModel dx="1303" dy="823" grid="1" gridSize="10" guides="1" tooltips="1" connect="1" arrows="1" fold="1" page="1" pageScale="1" pageWidth="827" pageHeight="1169" math="0" shadow="0">
      <root>
        <mxCell id="0" />
        <mxCell id="1" parent="0" />
        <mxCell id="ILtdrP85_5-fsnCXG0Ax-25" value="&lt;div&gt;&lt;br&gt;&lt;/div&gt;" style="text;html=1;align=center;verticalAlign=middle;resizable=0;points=[];autosize=1;strokeColor=none;fillColor=none;" parent="1" vertex="1">
          <mxGeometry x="280" y="348" width="20" height="30" as="geometry" />
        </mxCell>
        <mxCell id="ILtdrP85_5-fsnCXG0Ax-199" value="" style="edgeStyle=orthogonalEdgeStyle;rounded=0;orthogonalLoop=1;jettySize=auto;html=1;" parent="1" source="ILtdrP85_5-fsnCXG0Ax-99" target="ILtdrP85_5-fsnCXG0Ax-198" edge="1">
          <mxGeometry relative="1" as="geometry" />
        </mxCell>
        <mxCell id="ILtdrP85_5-fsnCXG0Ax-224" style="edgeStyle=orthogonalEdgeStyle;rounded=0;orthogonalLoop=1;jettySize=auto;html=1;exitX=1;exitY=0.5;exitDx=0;exitDy=0;" parent="1" source="ILtdrP85_5-fsnCXG0Ax-99" target="ILtdrP85_5-fsnCXG0Ax-141" edge="1">
          <mxGeometry relative="1" as="geometry" />
        </mxCell>
        <mxCell id="ILtdrP85_5-fsnCXG0Ax-99" value="&lt;table border=&quot;1&quot; width=&quot;100%&quot; height=&quot;100%&quot; cellpadding=&quot;4&quot; style=&quot;width:100%;height:100%;border-collapse:collapse;&quot;&gt;&lt;tbody&gt;&lt;tr&gt;&lt;th align=&quot;center&quot;&gt;&lt;font style=&quot;font-size: 20px;&quot;&gt;Investeerimis v천imalused&lt;/font&gt;&lt;/th&gt;&lt;/tr&gt;&lt;tr&gt;&lt;td align=&quot;center&quot;&gt;&lt;font style=&quot;font-size: 20px;&quot;&gt;Jm varad&lt;/font&gt;&lt;/td&gt;&lt;/tr&gt;&lt;tr&gt;&lt;td align=&quot;center&quot;&gt;&lt;span style=&quot;font-size: 20px;&quot;&gt;V채채rtpaberitesse&lt;/span&gt;&lt;/td&gt;&lt;/tr&gt;&lt;/tbody&gt;&lt;/table&gt;" style="text;html=1;whiteSpace=wrap;strokeColor=none;fillColor=none;overflow=fill;" parent="1" vertex="1">
          <mxGeometry x="60" y="74" width="270" height="212" as="geometry" />
        </mxCell>
        <mxCell id="ILtdrP85_5-fsnCXG0Ax-116" value="Table" style="shape=table;startSize=30;container=1;collapsible=0;childLayout=tableLayout;fixedRows=1;rowLines=0;fontStyle=0;strokeColor=#3700CC;fontSize=16;fillColor=#6a00ff;fontColor=#ffffff;" parent="1" vertex="1">
          <mxGeometry x="400" y="80" width="180" height="180" as="geometry" />
        </mxCell>
        <mxCell id="ILtdrP85_5-fsnCXG0Ax-117" value="" style="shape=tableRow;horizontal=0;startSize=0;swimlaneHead=0;swimlaneBody=0;top=0;left=0;bottom=0;right=0;collapsible=0;dropTarget=0;fillColor=none;points=[[0,0.5],[1,0.5]];portConstraint=eastwest;strokeColor=inherit;fontSize=16;" parent="ILtdrP85_5-fsnCXG0Ax-116" vertex="1">
          <mxGeometry y="30" width="180" height="30" as="geometry" />
        </mxCell>
        <mxCell id="ILtdrP85_5-fsnCXG0Ax-118" value="1" style="shape=partialRectangle;html=1;whiteSpace=wrap;connectable=0;fillColor=none;top=0;left=0;bottom=0;right=0;overflow=hidden;pointerEvents=1;strokeColor=inherit;fontSize=16;" parent="ILtdrP85_5-fsnCXG0Ax-117" vertex="1">
          <mxGeometry width="40" height="30" as="geometry">
            <mxRectangle width="40" height="30" as="alternateBounds" />
          </mxGeometry>
        </mxCell>
        <mxCell id="ILtdrP85_5-fsnCXG0Ax-119" value="&lt;span style=&quot;text-align: center;&quot;&gt;Aktsiad&lt;/span&gt;" style="shape=partialRectangle;html=1;whiteSpace=wrap;connectable=0;fillColor=none;top=0;left=0;bottom=0;right=0;align=left;spacingLeft=6;overflow=hidden;strokeColor=inherit;fontSize=16;" parent="ILtdrP85_5-fsnCXG0Ax-117" vertex="1">
          <mxGeometry x="40" width="140" height="30" as="geometry">
            <mxRectangle width="140" height="30" as="alternateBounds" />
          </mxGeometry>
        </mxCell>
        <mxCell id="ILtdrP85_5-fsnCXG0Ax-120" value="" style="shape=tableRow;horizontal=0;startSize=0;swimlaneHead=0;swimlaneBody=0;top=0;left=0;bottom=0;right=0;collapsible=0;dropTarget=0;fillColor=none;points=[[0,0.5],[1,0.5]];portConstraint=eastwest;strokeColor=inherit;fontSize=16;" parent="ILtdrP85_5-fsnCXG0Ax-116" vertex="1">
          <mxGeometry y="60" width="180" height="30" as="geometry" />
        </mxCell>
        <mxCell id="ILtdrP85_5-fsnCXG0Ax-121" value="2" style="shape=partialRectangle;html=1;whiteSpace=wrap;connectable=0;fillColor=none;top=0;left=0;bottom=0;right=0;overflow=hidden;strokeColor=inherit;fontSize=16;" parent="ILtdrP85_5-fsnCXG0Ax-120" vertex="1">
          <mxGeometry width="40" height="30" as="geometry">
            <mxRectangle width="40" height="30" as="alternateBounds" />
          </mxGeometry>
        </mxCell>
        <mxCell id="ILtdrP85_5-fsnCXG0Ax-122" value="&lt;span style=&quot;text-align: center;&quot;&gt;V천lakirjad&lt;/span&gt;" style="shape=partialRectangle;html=1;whiteSpace=wrap;connectable=0;fillColor=none;top=0;left=0;bottom=0;right=0;align=left;spacingLeft=6;overflow=hidden;strokeColor=inherit;fontSize=16;" parent="ILtdrP85_5-fsnCXG0Ax-120" vertex="1">
          <mxGeometry x="40" width="140" height="30" as="geometry">
            <mxRectangle width="140" height="30" as="alternateBounds" />
          </mxGeometry>
        </mxCell>
        <mxCell id="ILtdrP85_5-fsnCXG0Ax-141" value="" style="shape=tableRow;horizontal=0;startSize=0;swimlaneHead=0;swimlaneBody=0;top=0;left=0;bottom=0;right=0;collapsible=0;dropTarget=0;fillColor=none;points=[[0,0.5],[1,0.5]];portConstraint=eastwest;strokeColor=inherit;fontSize=16;" parent="ILtdrP85_5-fsnCXG0Ax-116" vertex="1">
          <mxGeometry y="90" width="180" height="30" as="geometry" />
        </mxCell>
        <mxCell id="ILtdrP85_5-fsnCXG0Ax-142" value="3" style="shape=partialRectangle;html=1;whiteSpace=wrap;connectable=0;fillColor=none;top=0;left=0;bottom=0;right=0;overflow=hidden;strokeColor=inherit;fontSize=16;" parent="ILtdrP85_5-fsnCXG0Ax-141" vertex="1">
          <mxGeometry width="40" height="30" as="geometry">
            <mxRectangle width="40" height="30" as="alternateBounds" />
          </mxGeometry>
        </mxCell>
        <mxCell id="ILtdrP85_5-fsnCXG0Ax-143" value="&lt;span style=&quot;text-align: center;&quot;&gt;Fondiosakud&lt;/span&gt;" style="shape=partialRectangle;html=1;whiteSpace=wrap;connectable=0;fillColor=none;top=0;left=0;bottom=0;right=0;align=left;spacingLeft=6;overflow=hidden;strokeColor=inherit;fontSize=16;" parent="ILtdrP85_5-fsnCXG0Ax-141" vertex="1">
          <mxGeometry x="40" width="140" height="30" as="geometry">
            <mxRectangle width="140" height="30" as="alternateBounds" />
          </mxGeometry>
        </mxCell>
        <mxCell id="ILtdrP85_5-fsnCXG0Ax-144" value="" style="shape=tableRow;horizontal=0;startSize=0;swimlaneHead=0;swimlaneBody=0;top=0;left=0;bottom=0;right=0;collapsible=0;dropTarget=0;fillColor=none;points=[[0,0.5],[1,0.5]];portConstraint=eastwest;strokeColor=inherit;fontSize=16;" parent="ILtdrP85_5-fsnCXG0Ax-116" vertex="1">
          <mxGeometry y="120" width="180" height="30" as="geometry" />
        </mxCell>
        <mxCell id="ILtdrP85_5-fsnCXG0Ax-145" value="4" style="shape=partialRectangle;html=1;whiteSpace=wrap;connectable=0;fillColor=none;top=0;left=0;bottom=0;right=0;overflow=hidden;strokeColor=inherit;fontSize=16;" parent="ILtdrP85_5-fsnCXG0Ax-144" vertex="1">
          <mxGeometry width="40" height="30" as="geometry">
            <mxRectangle width="40" height="30" as="alternateBounds" />
          </mxGeometry>
        </mxCell>
        <mxCell id="ILtdrP85_5-fsnCXG0Ax-146" value="&lt;span style=&quot;text-align: center;&quot;&gt;Kinnisvara&lt;/span&gt;" style="shape=partialRectangle;html=1;whiteSpace=wrap;connectable=0;fillColor=none;top=0;left=0;bottom=0;right=0;align=left;spacingLeft=6;overflow=hidden;strokeColor=inherit;fontSize=16;" parent="ILtdrP85_5-fsnCXG0Ax-144" vertex="1">
          <mxGeometry x="40" width="140" height="30" as="geometry">
            <mxRectangle width="140" height="30" as="alternateBounds" />
          </mxGeometry>
        </mxCell>
        <mxCell id="ILtdrP85_5-fsnCXG0Ax-198" value="" style="shape=singleArrow;whiteSpace=wrap;html=1;arrowWidth=0.4;arrowSize=0.4;" parent="ILtdrP85_5-fsnCXG0Ax-144" vertex="1">
          <mxGeometry x="180" height="30" as="geometry">
            <mxRectangle width="NaN" height="30" as="alternateBounds" />
          </mxGeometry>
        </mxCell>
        <mxCell id="ILtdrP85_5-fsnCXG0Ax-123" value="" style="shape=tableRow;horizontal=0;startSize=0;swimlaneHead=0;swimlaneBody=0;top=0;left=0;bottom=0;right=0;collapsible=0;dropTarget=0;fillColor=none;points=[[0,0.5],[1,0.5]];portConstraint=eastwest;strokeColor=inherit;fontSize=16;" parent="ILtdrP85_5-fsnCXG0Ax-116" vertex="1">
          <mxGeometry y="150" width="180" height="30" as="geometry" />
        </mxCell>
        <mxCell id="ILtdrP85_5-fsnCXG0Ax-124" value="5" style="shape=partialRectangle;html=1;whiteSpace=wrap;connectable=0;fillColor=none;top=0;left=0;bottom=0;right=0;overflow=hidden;strokeColor=inherit;fontSize=16;" parent="ILtdrP85_5-fsnCXG0Ax-123" vertex="1">
          <mxGeometry width="40" height="30" as="geometry">
            <mxRectangle width="40" height="30" as="alternateBounds" />
          </mxGeometry>
        </mxCell>
        <mxCell id="ILtdrP85_5-fsnCXG0Ax-125" value="&lt;span style=&quot;text-align: center;&quot;&gt;Renditulu&lt;/span&gt;" style="shape=partialRectangle;html=1;whiteSpace=wrap;connectable=0;fillColor=none;top=0;left=0;bottom=0;right=0;align=left;spacingLeft=6;overflow=hidden;strokeColor=inherit;fontSize=16;" parent="ILtdrP85_5-fsnCXG0Ax-123" vertex="1">
          <mxGeometry x="40" width="140" height="30" as="geometry">
            <mxRectangle width="140" height="30" as="alternateBounds" />
          </mxGeometry>
        </mxCell>
        <mxCell id="ILtdrP85_5-fsnCXG0Ax-174" value="Iga kuused varade kulud" style="shape=table;childLayout=tableLayout;startSize=40;collapsible=0;recursiveResize=0;expand=0;fontSize=16;fillColor=#6a00ff;fontColor=#ffffff;strokeColor=#3700CC;" parent="1" vertex="1">
          <mxGeometry x="680" y="74" width="450" height="370" as="geometry" />
        </mxCell>
        <mxCell id="ILtdrP85_5-fsnCXG0Ax-175" value="" style="shape=tableRow;horizontal=0;swimlaneHead=0;swimlaneBody=0;top=0;left=0;strokeColor=inherit;bottom=0;right=0;dropTarget=0;fontStyle=0;fillColor=none;points=[[0,0.5],[1,0.5]];portConstraint=eastwest;startSize=20;collapsible=0;recursiveResize=0;expand=0;fontSize=16;" parent="ILtdrP85_5-fsnCXG0Ax-174" vertex="1">
          <mxGeometry y="40" width="450" height="64" as="geometry" />
        </mxCell>
        <mxCell id="ILtdrP85_5-fsnCXG0Ax-176" value="Microsofti aktsiad" style="swimlane;swimlaneHead=0;swimlaneBody=0;fontStyle=0;strokeColor=inherit;connectable=0;fillColor=none;startSize=40;collapsible=0;recursiveResize=0;expand=0;fontSize=16;" parent="ILtdrP85_5-fsnCXG0Ax-175" vertex="1">
          <mxGeometry x="20" width="123" height="64" as="geometry">
            <mxRectangle width="123" height="64" as="alternateBounds" />
          </mxGeometry>
        </mxCell>
        <mxCell id="ILtdrP85_5-fsnCXG0Ax-67" value="&lt;font style=&quot;font-size: 14px;&quot;&gt;V채채rtus ja kogus&lt;/font&gt;" style="shape=partialRectangle;html=1;whiteSpace=wrap;connectable=0;strokeColor=inherit;overflow=hidden;fillColor=none;top=0;left=0;bottom=0;right=0;pointerEvents=1;fontSize=16;" parent="ILtdrP85_5-fsnCXG0Ax-176" vertex="1">
          <mxGeometry x="5" y="30" width="123" height="51" as="geometry">
            <mxRectangle width="123" height="133" as="alternateBounds" />
          </mxGeometry>
        </mxCell>
        <mxCell id="ILtdrP85_5-fsnCXG0Ax-177" value="S&amp;P 500 fondiosak" style="swimlane;swimlaneHead=0;swimlaneBody=0;fontStyle=0;strokeColor=inherit;connectable=0;fillColor=none;startSize=40;collapsible=0;recursiveResize=0;expand=0;fontSize=14;" parent="ILtdrP85_5-fsnCXG0Ax-175" vertex="1">
          <mxGeometry x="143" width="131" height="64" as="geometry">
            <mxRectangle width="131" height="64" as="alternateBounds" />
          </mxGeometry>
        </mxCell>
        <mxCell id="ILtdrP85_5-fsnCXG0Ax-195" value="&lt;font style=&quot;font-size: 14px;&quot;&gt;V채채rtus ja kogus&lt;/font&gt;" style="text;html=1;align=center;verticalAlign=middle;resizable=0;points=[];autosize=1;strokeColor=none;fillColor=none;" parent="ILtdrP85_5-fsnCXG0Ax-177" vertex="1">
          <mxGeometry x="5" y="40.5" width="130" height="30" as="geometry" />
        </mxCell>
        <mxCell id="ILtdrP85_5-fsnCXG0Ax-178" value="Kontorihoone s체dalinnas" style="swimlane;swimlaneHead=0;swimlaneBody=0;fontStyle=0;strokeColor=inherit;connectable=0;fillColor=none;startSize=40;collapsible=0;recursiveResize=0;expand=0;fontSize=14;" parent="ILtdrP85_5-fsnCXG0Ax-175" vertex="1">
          <mxGeometry x="274" width="176" height="64" as="geometry">
            <mxRectangle width="176" height="64" as="alternateBounds" />
          </mxGeometry>
        </mxCell>
        <mxCell id="ILtdrP85_5-fsnCXG0Ax-196" value="&lt;font style=&quot;font-size: 14px;&quot;&gt;V채채rtus ja kogus&lt;/font&gt;" style="text;html=1;align=center;verticalAlign=middle;resizable=0;points=[];autosize=1;strokeColor=none;fillColor=none;fontSize=15;" parent="ILtdrP85_5-fsnCXG0Ax-178" vertex="1">
          <mxGeometry x="25" y="40.5" width="130" height="30" as="geometry" />
        </mxCell>
        <mxCell id="ILtdrP85_5-fsnCXG0Ax-179" value="1 kuu" style="shape=tableRow;horizontal=0;swimlaneHead=0;swimlaneBody=0;top=0;left=0;strokeColor=inherit;bottom=0;right=0;dropTarget=0;fontStyle=0;fillColor=none;points=[[0,0.5],[1,0.5]];portConstraint=eastwest;startSize=20;collapsible=0;recursiveResize=0;expand=0;fontSize=16;" parent="ILtdrP85_5-fsnCXG0Ax-174" vertex="1">
          <mxGeometry y="104" width="450" height="89" as="geometry" />
        </mxCell>
        <mxCell id="ILtdrP85_5-fsnCXG0Ax-180" value="" style="swimlane;swimlaneHead=0;swimlaneBody=0;fontStyle=0;connectable=0;strokeColor=inherit;fillColor=none;startSize=0;collapsible=0;recursiveResize=0;expand=0;fontSize=16;" parent="ILtdrP85_5-fsnCXG0Ax-179" vertex="1">
          <mxGeometry x="20" width="123" height="89" as="geometry">
            <mxRectangle width="123" height="89" as="alternateBounds" />
          </mxGeometry>
        </mxCell>
        <mxCell id="ILtdrP85_5-fsnCXG0Ax-181" value="" style="swimlane;swimlaneHead=0;swimlaneBody=0;fontStyle=0;connectable=0;strokeColor=inherit;fillColor=none;startSize=0;collapsible=0;recursiveResize=0;expand=0;fontSize=16;" parent="ILtdrP85_5-fsnCXG0Ax-179" vertex="1">
          <mxGeometry x="143" width="131" height="89" as="geometry">
            <mxRectangle width="131" height="89" as="alternateBounds" />
          </mxGeometry>
        </mxCell>
        <mxCell id="ILtdrP85_5-fsnCXG0Ax-182" value="" style="swimlane;swimlaneHead=0;swimlaneBody=0;fontStyle=0;connectable=0;strokeColor=inherit;fillColor=none;startSize=0;collapsible=0;recursiveResize=0;expand=0;fontSize=16;" parent="ILtdrP85_5-fsnCXG0Ax-179" vertex="1">
          <mxGeometry x="274" width="176" height="89" as="geometry">
            <mxRectangle width="176" height="89" as="alternateBounds" />
          </mxGeometry>
        </mxCell>
        <mxCell id="ILtdrP85_5-fsnCXG0Ax-191" value="2 kuu" style="shape=tableRow;horizontal=0;swimlaneHead=0;swimlaneBody=0;top=0;left=0;strokeColor=inherit;bottom=0;right=0;dropTarget=0;fontStyle=0;fillColor=none;points=[[0,0.5],[1,0.5]];portConstraint=eastwest;startSize=20;collapsible=0;recursiveResize=0;expand=0;fontSize=16;" parent="ILtdrP85_5-fsnCXG0Ax-174" vertex="1">
          <mxGeometry y="193" width="450" height="88" as="geometry" />
        </mxCell>
        <mxCell id="ILtdrP85_5-fsnCXG0Ax-192" value="" style="swimlane;swimlaneHead=0;swimlaneBody=0;fontStyle=0;connectable=0;strokeColor=inherit;fillColor=none;startSize=0;collapsible=0;recursiveResize=0;expand=0;fontSize=16;" parent="ILtdrP85_5-fsnCXG0Ax-191" vertex="1">
          <mxGeometry x="20" width="123" height="88" as="geometry">
            <mxRectangle width="123" height="88" as="alternateBounds" />
          </mxGeometry>
        </mxCell>
        <mxCell id="ILtdrP85_5-fsnCXG0Ax-193" value="" style="swimlane;swimlaneHead=0;swimlaneBody=0;fontStyle=0;connectable=0;strokeColor=inherit;fillColor=none;startSize=0;collapsible=0;recursiveResize=0;expand=0;fontSize=16;" parent="ILtdrP85_5-fsnCXG0Ax-191" vertex="1">
          <mxGeometry x="143" width="131" height="88" as="geometry">
            <mxRectangle width="131" height="88" as="alternateBounds" />
          </mxGeometry>
        </mxCell>
        <mxCell id="ILtdrP85_5-fsnCXG0Ax-194" value="" style="swimlane;swimlaneHead=0;swimlaneBody=0;fontStyle=0;connectable=0;strokeColor=inherit;fillColor=none;startSize=0;collapsible=0;recursiveResize=0;expand=0;fontSize=16;" parent="ILtdrP85_5-fsnCXG0Ax-191" vertex="1">
          <mxGeometry x="274" width="176" height="88" as="geometry">
            <mxRectangle width="176" height="88" as="alternateBounds" />
          </mxGeometry>
        </mxCell>
        <mxCell id="ILtdrP85_5-fsnCXG0Ax-183" value="3 kuu" style="shape=tableRow;horizontal=0;swimlaneHead=0;swimlaneBody=0;top=0;left=0;strokeColor=inherit;bottom=0;right=0;dropTarget=0;fontStyle=0;fillColor=none;points=[[0,0.5],[1,0.5]];portConstraint=eastwest;startSize=20;collapsible=0;recursiveResize=0;expand=0;fontSize=16;" parent="ILtdrP85_5-fsnCXG0Ax-174" vertex="1">
          <mxGeometry y="281" width="450" height="89" as="geometry" />
        </mxCell>
        <mxCell id="ILtdrP85_5-fsnCXG0Ax-184" value="" style="swimlane;swimlaneHead=0;swimlaneBody=0;fontStyle=0;connectable=0;strokeColor=inherit;fillColor=none;startSize=0;collapsible=0;recursiveResize=0;expand=0;fontSize=16;" parent="ILtdrP85_5-fsnCXG0Ax-183" vertex="1">
          <mxGeometry x="20" width="123" height="89" as="geometry">
            <mxRectangle width="123" height="89" as="alternateBounds" />
          </mxGeometry>
        </mxCell>
        <mxCell id="ILtdrP85_5-fsnCXG0Ax-185" value="" style="swimlane;swimlaneHead=0;swimlaneBody=0;fontStyle=0;connectable=0;strokeColor=inherit;fillColor=none;startSize=0;collapsible=0;recursiveResize=0;expand=0;fontSize=16;" parent="ILtdrP85_5-fsnCXG0Ax-183" vertex="1">
          <mxGeometry x="143" width="131" height="89" as="geometry">
            <mxRectangle width="131" height="89" as="alternateBounds" />
          </mxGeometry>
        </mxCell>
        <mxCell id="ILtdrP85_5-fsnCXG0Ax-186" value="" style="swimlane;swimlaneHead=0;swimlaneBody=0;fontStyle=0;connectable=0;strokeColor=inherit;fillColor=none;startSize=0;collapsible=0;recursiveResize=0;expand=0;fontSize=16;" parent="ILtdrP85_5-fsnCXG0Ax-183" vertex="1">
          <mxGeometry x="274" width="176" height="89" as="geometry">
            <mxRectangle width="176" height="89" as="alternateBounds" />
          </mxGeometry>
        </mxCell>
        <mxCell id="ILtdrP85_5-fsnCXG0Ax-201" style="edgeStyle=orthogonalEdgeStyle;rounded=0;orthogonalLoop=1;jettySize=auto;html=1;entryX=0.003;entryY=0.088;entryDx=0;entryDy=0;entryPerimeter=0;" parent="1" source="ILtdrP85_5-fsnCXG0Ax-141" target="ILtdrP85_5-fsnCXG0Ax-174" edge="1">
          <mxGeometry relative="1" as="geometry" />
        </mxCell>
        <mxCell id="ILtdrP85_5-fsnCXG0Ax-225" value="V채채rtpaberitesse muutused" style="shape=table;childLayout=tableLayout;startSize=40;collapsible=0;recursiveResize=0;expand=0;fontSize=16;fillColor=#6a00ff;fontColor=#ffffff;strokeColor=#3700CC;" parent="1" vertex="1">
          <mxGeometry x="60" y="370" width="450" height="459" as="geometry" />
        </mxCell>
        <mxCell id="ILtdrP85_5-fsnCXG0Ax-226" value="" style="shape=tableRow;horizontal=0;swimlaneHead=0;swimlaneBody=0;top=0;left=0;strokeColor=inherit;bottom=0;right=0;dropTarget=0;fontStyle=0;fillColor=none;points=[[0,0.5],[1,0.5]];portConstraint=eastwest;startSize=20;collapsible=0;recursiveResize=0;expand=0;fontSize=16;" parent="ILtdrP85_5-fsnCXG0Ax-225" vertex="1">
          <mxGeometry y="40" width="450" height="64" as="geometry" />
        </mxCell>
        <mxCell id="ILtdrP85_5-fsnCXG0Ax-227" value="V천etud raha" style="swimlane;swimlaneHead=0;swimlaneBody=0;fontStyle=0;strokeColor=inherit;connectable=0;fillColor=none;startSize=40;collapsible=0;recursiveResize=0;expand=0;fontSize=16;" parent="ILtdrP85_5-fsnCXG0Ax-226" vertex="1">
          <mxGeometry x="20" width="123" height="64" as="geometry">
            <mxRectangle width="123" height="64" as="alternateBounds" />
          </mxGeometry>
        </mxCell>
        <mxCell id="ILtdrP85_5-fsnCXG0Ax-228" value="&lt;span style=&quot;font-size: 14px; text-wrap-mode: nowrap;&quot;&gt;Kogus&lt;/span&gt;" style="shape=partialRectangle;html=1;whiteSpace=wrap;connectable=0;strokeColor=inherit;overflow=hidden;fillColor=none;top=0;left=0;bottom=0;right=0;pointerEvents=1;fontSize=16;" parent="ILtdrP85_5-fsnCXG0Ax-227" vertex="1">
          <mxGeometry y="30" width="123" height="51" as="geometry">
            <mxRectangle width="123" height="133" as="alternateBounds" />
          </mxGeometry>
        </mxCell>
        <mxCell id="ILtdrP85_5-fsnCXG0Ax-229" value="Paigutatud raha" style="swimlane;swimlaneHead=0;swimlaneBody=0;fontStyle=0;strokeColor=inherit;connectable=0;fillColor=none;startSize=40;collapsible=0;recursiveResize=0;expand=0;fontSize=14;" parent="ILtdrP85_5-fsnCXG0Ax-226" vertex="1">
          <mxGeometry x="143" width="131" height="64" as="geometry">
            <mxRectangle width="131" height="64" as="alternateBounds" />
          </mxGeometry>
        </mxCell>
        <mxCell id="ILtdrP85_5-fsnCXG0Ax-230" value="&lt;span style=&quot;font-size: 14px;&quot;&gt;Kogus&lt;/span&gt;" style="text;html=1;align=center;verticalAlign=middle;resizable=0;points=[];autosize=1;strokeColor=none;fillColor=none;" parent="ILtdrP85_5-fsnCXG0Ax-229" vertex="1">
          <mxGeometry x="40" y="40.5" width="60" height="30" as="geometry" />
        </mxCell>
        <mxCell id="ILtdrP85_5-fsnCXG0Ax-231" value="Investeerituna raha" style="swimlane;swimlaneHead=0;swimlaneBody=0;fontStyle=0;strokeColor=inherit;connectable=0;fillColor=none;startSize=40;collapsible=0;recursiveResize=0;expand=0;fontSize=14;" parent="ILtdrP85_5-fsnCXG0Ax-226" vertex="1">
          <mxGeometry x="274" width="176" height="64" as="geometry">
            <mxRectangle width="176" height="64" as="alternateBounds" />
          </mxGeometry>
        </mxCell>
        <mxCell id="ILtdrP85_5-fsnCXG0Ax-232" value="&lt;font style=&quot;font-size: 14px;&quot;&gt;Kogus&lt;/font&gt;" style="text;html=1;align=center;verticalAlign=middle;resizable=0;points=[];autosize=1;strokeColor=none;fillColor=none;fontSize=15;" parent="ILtdrP85_5-fsnCXG0Ax-231" vertex="1">
          <mxGeometry x="60" y="40.5" width="60" height="30" as="geometry" />
        </mxCell>
        <mxCell id="ILtdrP85_5-fsnCXG0Ax-233" value="1 kuu" style="shape=tableRow;horizontal=0;swimlaneHead=0;swimlaneBody=0;top=0;left=0;strokeColor=inherit;bottom=0;right=0;dropTarget=0;fontStyle=0;fillColor=none;points=[[0,0.5],[1,0.5]];portConstraint=eastwest;startSize=20;collapsible=0;recursiveResize=0;expand=0;fontSize=16;" parent="ILtdrP85_5-fsnCXG0Ax-225" vertex="1">
          <mxGeometry y="104" width="450" height="89" as="geometry" />
        </mxCell>
        <mxCell id="ILtdrP85_5-fsnCXG0Ax-234" value="" style="swimlane;swimlaneHead=0;swimlaneBody=0;fontStyle=0;connectable=0;strokeColor=inherit;fillColor=none;startSize=0;collapsible=0;recursiveResize=0;expand=0;fontSize=16;" parent="ILtdrP85_5-fsnCXG0Ax-233" vertex="1">
          <mxGeometry x="20" width="123" height="89" as="geometry">
            <mxRectangle width="123" height="89" as="alternateBounds" />
          </mxGeometry>
        </mxCell>
        <mxCell id="ILtdrP85_5-fsnCXG0Ax-235" value="" style="swimlane;swimlaneHead=0;swimlaneBody=0;fontStyle=0;connectable=0;strokeColor=inherit;fillColor=none;startSize=0;collapsible=0;recursiveResize=0;expand=0;fontSize=16;" parent="ILtdrP85_5-fsnCXG0Ax-233" vertex="1">
          <mxGeometry x="143" width="131" height="89" as="geometry">
            <mxRectangle width="131" height="89" as="alternateBounds" />
          </mxGeometry>
        </mxCell>
        <mxCell id="ILtdrP85_5-fsnCXG0Ax-236" value="" style="swimlane;swimlaneHead=0;swimlaneBody=0;fontStyle=0;connectable=0;strokeColor=inherit;fillColor=none;startSize=0;collapsible=0;recursiveResize=0;expand=0;fontSize=16;" parent="ILtdrP85_5-fsnCXG0Ax-233" vertex="1">
          <mxGeometry x="274" width="176" height="89" as="geometry">
            <mxRectangle width="176" height="89" as="alternateBounds" />
          </mxGeometry>
        </mxCell>
        <mxCell id="ILtdrP85_5-fsnCXG0Ax-237" value="2 kuu" style="shape=tableRow;horizontal=0;swimlaneHead=0;swimlaneBody=0;top=0;left=0;strokeColor=inherit;bottom=0;right=0;dropTarget=0;fontStyle=0;fillColor=none;points=[[0,0.5],[1,0.5]];portConstraint=eastwest;startSize=20;collapsible=0;recursiveResize=0;expand=0;fontSize=16;" parent="ILtdrP85_5-fsnCXG0Ax-225" vertex="1">
          <mxGeometry y="193" width="450" height="88" as="geometry" />
        </mxCell>
        <mxCell id="ILtdrP85_5-fsnCXG0Ax-238" value="" style="swimlane;swimlaneHead=0;swimlaneBody=0;fontStyle=0;connectable=0;strokeColor=inherit;fillColor=none;startSize=0;collapsible=0;recursiveResize=0;expand=0;fontSize=16;" parent="ILtdrP85_5-fsnCXG0Ax-237" vertex="1">
          <mxGeometry x="20" width="123" height="88" as="geometry">
            <mxRectangle width="123" height="88" as="alternateBounds" />
          </mxGeometry>
        </mxCell>
        <mxCell id="ILtdrP85_5-fsnCXG0Ax-239" value="" style="swimlane;swimlaneHead=0;swimlaneBody=0;fontStyle=0;connectable=0;strokeColor=inherit;fillColor=none;startSize=0;collapsible=0;recursiveResize=0;expand=0;fontSize=16;" parent="ILtdrP85_5-fsnCXG0Ax-237" vertex="1">
          <mxGeometry x="143" width="131" height="88" as="geometry">
            <mxRectangle width="131" height="88" as="alternateBounds" />
          </mxGeometry>
        </mxCell>
        <mxCell id="ILtdrP85_5-fsnCXG0Ax-240" value="" style="swimlane;swimlaneHead=0;swimlaneBody=0;fontStyle=0;connectable=0;strokeColor=inherit;fillColor=none;startSize=0;collapsible=0;recursiveResize=0;expand=0;fontSize=16;" parent="ILtdrP85_5-fsnCXG0Ax-237" vertex="1">
          <mxGeometry x="274" width="176" height="88" as="geometry">
            <mxRectangle width="176" height="88" as="alternateBounds" />
          </mxGeometry>
        </mxCell>
        <mxCell id="ILtdrP85_5-fsnCXG0Ax-241" value="3 kuu" style="shape=tableRow;horizontal=0;swimlaneHead=0;swimlaneBody=0;top=0;left=0;strokeColor=inherit;bottom=0;right=0;dropTarget=0;fontStyle=0;fillColor=none;points=[[0,0.5],[1,0.5]];portConstraint=eastwest;startSize=20;collapsible=0;recursiveResize=0;expand=0;fontSize=16;" parent="ILtdrP85_5-fsnCXG0Ax-225" vertex="1">
          <mxGeometry y="281" width="450" height="89" as="geometry" />
        </mxCell>
        <mxCell id="ILtdrP85_5-fsnCXG0Ax-242" value="" style="swimlane;swimlaneHead=0;swimlaneBody=0;fontStyle=0;connectable=0;strokeColor=inherit;fillColor=none;startSize=0;collapsible=0;recursiveResize=0;expand=0;fontSize=16;" parent="ILtdrP85_5-fsnCXG0Ax-241" vertex="1">
          <mxGeometry x="20" width="123" height="89" as="geometry">
            <mxRectangle width="123" height="89" as="alternateBounds" />
          </mxGeometry>
        </mxCell>
        <mxCell id="ILtdrP85_5-fsnCXG0Ax-243" value="" style="swimlane;swimlaneHead=0;swimlaneBody=0;fontStyle=0;connectable=0;strokeColor=inherit;fillColor=none;startSize=0;collapsible=0;recursiveResize=0;expand=0;fontSize=16;" parent="ILtdrP85_5-fsnCXG0Ax-241" vertex="1">
          <mxGeometry x="143" width="131" height="89" as="geometry">
            <mxRectangle width="131" height="89" as="alternateBounds" />
          </mxGeometry>
        </mxCell>
        <mxCell id="ILtdrP85_5-fsnCXG0Ax-244" value="" style="swimlane;swimlaneHead=0;swimlaneBody=0;fontStyle=0;connectable=0;strokeColor=inherit;fillColor=none;startSize=0;collapsible=0;recursiveResize=0;expand=0;fontSize=16;" parent="ILtdrP85_5-fsnCXG0Ax-241" vertex="1">
          <mxGeometry x="274" width="176" height="89" as="geometry">
            <mxRectangle width="176" height="89" as="alternateBounds" />
          </mxGeometry>
        </mxCell>
        <mxCell id="ILtdrP85_5-fsnCXG0Ax-269" value="4 kuu" style="shape=tableRow;horizontal=0;swimlaneHead=0;swimlaneBody=0;top=0;left=0;strokeColor=inherit;bottom=0;right=0;dropTarget=0;fontStyle=0;fillColor=none;points=[[0,0.5],[1,0.5]];portConstraint=eastwest;startSize=20;collapsible=0;recursiveResize=0;expand=0;fontSize=16;" parent="ILtdrP85_5-fsnCXG0Ax-225" vertex="1">
          <mxGeometry y="370" width="450" height="89" as="geometry" />
        </mxCell>
        <mxCell id="ILtdrP85_5-fsnCXG0Ax-270" value="" style="swimlane;swimlaneHead=0;swimlaneBody=0;fontStyle=0;connectable=0;strokeColor=inherit;fillColor=none;startSize=0;collapsible=0;recursiveResize=0;expand=0;fontSize=16;" parent="ILtdrP85_5-fsnCXG0Ax-269" vertex="1">
          <mxGeometry x="20" width="123" height="89" as="geometry">
            <mxRectangle width="123" height="89" as="alternateBounds" />
          </mxGeometry>
        </mxCell>
        <mxCell id="ILtdrP85_5-fsnCXG0Ax-271" value="" style="swimlane;swimlaneHead=0;swimlaneBody=0;fontStyle=0;connectable=0;strokeColor=inherit;fillColor=none;startSize=0;collapsible=0;recursiveResize=0;expand=0;fontSize=16;" parent="ILtdrP85_5-fsnCXG0Ax-269" vertex="1">
          <mxGeometry x="143" width="131" height="89" as="geometry">
            <mxRectangle width="131" height="89" as="alternateBounds" />
          </mxGeometry>
        </mxCell>
        <mxCell id="ILtdrP85_5-fsnCXG0Ax-272" value="" style="swimlane;swimlaneHead=0;swimlaneBody=0;fontStyle=0;connectable=0;strokeColor=inherit;fillColor=none;startSize=0;collapsible=0;recursiveResize=0;expand=0;fontSize=16;" parent="ILtdrP85_5-fsnCXG0Ax-269" vertex="1">
          <mxGeometry x="274" width="176" height="89" as="geometry">
            <mxRectangle width="176" height="89" as="alternateBounds" />
          </mxGeometry>
        </mxCell>
        <mxCell id="ILtdrP85_5-fsnCXG0Ax-255" style="edgeStyle=orthogonalEdgeStyle;rounded=0;orthogonalLoop=1;jettySize=auto;html=1;exitX=0.5;exitY=1;exitDx=0;exitDy=0;entryX=0.298;entryY=0.002;entryDx=0;entryDy=0;entryPerimeter=0;" parent="1" source="ILtdrP85_5-fsnCXG0Ax-99" target="ILtdrP85_5-fsnCXG0Ax-225" edge="1">
          <mxGeometry relative="1" as="geometry" />
        </mxCell>
        <mxCell id="ILtdrP85_5-fsnCXG0Ax-281" value="" style="verticalLabelPosition=bottom;shadow=0;dashed=0;align=center;html=1;verticalAlign=top;strokeWidth=1;shape=mxgraph.mockup.graphics.lineChart;strokeColor=none;strokeColor2=#666666;strokeColor3=light-dark(#008CFF,#E52EFD);strokeColor4=#dddddd;" parent="1" vertex="1">
          <mxGeometry x="600" y="540" width="400" height="200" as="geometry" />
        </mxCell>
        <mxCell id="ILtdrP85_5-fsnCXG0Ax-282" value="Aasta 2020" style="text;html=1;align=center;verticalAlign=middle;resizable=0;points=[];autosize=1;strokeColor=none;fillColor=none;" parent="1" vertex="1">
          <mxGeometry x="610" y="740" width="80" height="30" as="geometry" />
        </mxCell>
        <mxCell id="ILtdrP85_5-fsnCXG0Ax-283" value="Aasta 2021" style="text;html=1;align=center;verticalAlign=middle;resizable=0;points=[];autosize=1;strokeColor=none;fillColor=none;" parent="1" vertex="1">
          <mxGeometry x="680" y="740" width="80" height="30" as="geometry" />
        </mxCell>
        <mxCell id="ILtdrP85_5-fsnCXG0Ax-284" value="Aasta 2022" style="text;html=1;align=center;verticalAlign=middle;resizable=0;points=[];autosize=1;strokeColor=none;fillColor=none;" parent="1" vertex="1">
          <mxGeometry x="755" y="740" width="80" height="30" as="geometry" />
        </mxCell>
        <mxCell id="ILtdrP85_5-fsnCXG0Ax-285" value="Aasta 2023" style="text;html=1;align=center;verticalAlign=middle;resizable=0;points=[];autosize=1;strokeColor=none;fillColor=none;" parent="1" vertex="1">
          <mxGeometry x="835" y="740" width="80" height="30" as="geometry" />
        </mxCell>
        <mxCell id="ILtdrP85_5-fsnCXG0Ax-286" value="Aasta 2024" style="text;html=1;align=center;verticalAlign=middle;resizable=0;points=[];autosize=1;strokeColor=none;fillColor=none;" parent="1" vertex="1">
          <mxGeometry x="915" y="740" width="80" height="30" as="geometry" />
        </mxCell>
        <mxCell id="ILtdrP85_5-fsnCXG0Ax-287" value="Portfelli v채채rtus" style="text;html=1;align=center;verticalAlign=middle;resizable=0;points=[];autosize=1;strokeColor=none;fillColor=none;rotation=270;" parent="1" vertex="1">
          <mxGeometry x="535" y="625" width="110" height="30" as="geometry" />
        </mxCell>
      </root>
    </mxGraphModel>
  </diagram>
</mxfile>
